<?xml version="1.0" encoding="utf-8"?>
<svg version="1.1" xmlns:xlink="http://www.w3.org/1999/xlink" width="18px" height="18px" viewBox="361 690  18 18" xmlns="http://www.w3.org/2000/svg">
  <path d="M 370 691  C 374.48 691  378 694.52  378 699  C 378 703.48  374.48 707  370 707  C 365.52 707  362 703.48  362 699  C 362 694.52  365.52 691  370 691  Z " fill-rule="nonzero" fill="#6200ee" stroke="none" fill-opacity="0" />
  <path d="M 370 691  C 374.48 691  378 694.52  378 699  C 378 703.48  374.48 707  370 707  C 365.52 707  362 703.48  362 699  C 362 694.52  365.52 691  370 691  Z " stroke-width="2" stroke="#1e98d7" fill="none" />
  <path d="M 370 703.5  C 367.48 703.5  365.5 701.52  365.5 699  C 365.5 696.48  367.48 694.5  370 694.5  C 372.52 694.5  374.5 696.48  374.5 699  C 374.5 701.52  372.52 703.5  370 703.5  " fill-rule="nonzero" fill="#1e98d7" stroke="none" />
</svg>