<?xml version="1.0" encoding="utf-8"?>
<svg version="1.1" xmlns:xlink="http://www.w3.org/1999/xlink" width="18px" height="18px" viewBox="845 694  18 18" xmlns="http://www.w3.org/2000/svg">
  <path d="M 846.5 696  A 0.5 0.5 0 0 1 847 695.5 L 861 695.5  A 0.5 0.5 0 0 1 861.5 696 L 861.5 710  A 0.5 0.5 0 0 1 861 710.5 L 847 710.5  A 0.5 0.5 0 0 1 846.5 710 L 846.5 696  Z " fill-rule="nonzero" fill="#ffffff" stroke="none" fill-opacity="0" />
  <path d="M 846 696  A 1 1 0 0 1 847 695 L 861 695  A 1 1 0 0 1 862 696 L 862 710  A 1 1 0 0 1 861 711 L 847 711  A 1 1 0 0 1 846 710 L 846 696  Z " stroke-width="2" stroke="#797979" fill="none" />
</svg>