<?xml version="1.0" encoding="utf-8"?>
<svg version="1.1" xmlns:xlink="http://www.w3.org/1999/xlink" width="18px" height="18px" viewBox="845 654  18 18" xmlns="http://www.w3.org/2000/svg">
  <path d="M 846.5 656  A 0.5 0.5 0 0 1 847 655.5 L 861 655.5  A 0.5 0.5 0 0 1 861.5 656 L 861.5 670  A 0.5 0.5 0 0 1 861 670.5 L 847 670.5  A 0.5 0.5 0 0 1 846.5 670 L 846.5 656  Z " fill-rule="nonzero" fill="#ffffff" stroke="none" fill-opacity="0" />
  <path d="M 846 656  A 1 1 0 0 1 847 655 L 861 655  A 1 1 0 0 1 862 656 L 862 670  A 1 1 0 0 1 861 671 L 847 671  A 1 1 0 0 1 846 670 L 846 656  Z " stroke-width="2" stroke="#797979" fill="none" />
</svg>