<?xml version="1.0" encoding="utf-8"?>
<svg version="1.1" xmlns:xlink="http://www.w3.org/1999/xlink" width="18px" height="18px" viewBox="523 770  18 18" xmlns="http://www.w3.org/2000/svg">
  <path d="M 532 771  C 536.48 771  540 774.52  540 779  C 540 783.48  536.48 787  532 787  C 527.52 787  524 783.48  524 779  C 524 774.52  527.52 771  532 771  Z " fill-rule="nonzero" fill="#6200ee" stroke="none" fill-opacity="0" />
  <path d="M 532 771  C 536.48 771  540 774.52  540 779  C 540 783.48  536.48 787  532 787  C 527.52 787  524 783.48  524 779  C 524 774.52  527.52 771  532 771  Z " stroke-width="2" stroke="#1e98d7" fill="none" />
  <path d="M 532 783.5  C 529.48 783.5  527.5 781.52  527.5 779  C 527.5 776.48  529.48 774.5  532 774.5  C 534.52 774.5  536.5 776.48  536.5 779  C 536.5 781.52  534.52 783.5  532 783.5  " fill-rule="nonzero" fill="#1e98d7" stroke="none" />
</svg>