<?xml version="1.0" encoding="utf-8"?>
<svg version="1.1" xmlns:xlink="http://www.w3.org/1999/xlink" width="18px" height="18px" viewBox="361 730  18 18" xmlns="http://www.w3.org/2000/svg">
  <path d="M 370 731  C 374.48 731  378 734.52  378 739  C 378 743.48  374.48 747  370 747  C 365.52 747  362 743.48  362 739  C 362 734.52  365.52 731  370 731  Z " fill-rule="nonzero" fill="#6200ee" stroke="none" fill-opacity="0" />
  <path d="M 370 731  C 374.48 731  378 734.52  378 739  C 378 743.48  374.48 747  370 747  C 365.52 747  362 743.48  362 739  C 362 734.52  365.52 731  370 731  Z " stroke-width="2" stroke="#1e98d7" fill="none" />
  <path d="M 370 743.5  C 367.48 743.5  365.5 741.52  365.5 739  C 365.5 736.48  367.48 734.5  370 734.5  C 372.52 734.5  374.5 736.48  374.5 739  C 374.5 741.52  372.52 743.5  370 743.5  " fill-rule="nonzero" fill="#1e98d7" stroke="none" />
</svg>