<?xml version="1.0" encoding="utf-8"?>
<svg version="1.1" xmlns:xlink="http://www.w3.org/1999/xlink" width="18px" height="18px" viewBox="693 770  18 18" xmlns="http://www.w3.org/2000/svg">
  <path d="M 702 771  C 706.48 771  710 774.52  710 779  C 710 783.48  706.48 787  702 787  C 697.52 787  694 783.48  694 779  C 694 774.52  697.52 771  702 771  Z " fill-rule="nonzero" fill="#6200ee" stroke="none" fill-opacity="0" />
  <path d="M 702 771  C 706.48 771  710 774.52  710 779  C 710 783.48  706.48 787  702 787  C 697.52 787  694 783.48  694 779  C 694 774.52  697.52 771  702 771  Z " stroke-width="2" stroke="#1e98d7" fill="none" />
  <path d="M 702 783.5  C 699.48 783.5  697.5 781.52  697.5 779  C 697.5 776.48  699.48 774.5  702 774.5  C 704.52 774.5  706.5 776.48  706.5 779  C 706.5 781.52  704.52 783.5  702 783.5  " fill-rule="nonzero" fill="#1e98d7" stroke="none" />
</svg>