<?xml version="1.0" encoding="utf-8"?>
<svg version="1.1" xmlns:xlink="http://www.w3.org/1999/xlink" width="18px" height="18px" viewBox="693 690  18 18" xmlns="http://www.w3.org/2000/svg">
  <path d="M 702 691  C 706.48 691  710 694.52  710 699  C 710 703.48  706.48 707  702 707  C 697.52 707  694 703.48  694 699  C 694 694.52  697.52 691  702 691  Z " fill-rule="nonzero" fill="#6200ee" stroke="none" fill-opacity="0" />
  <path d="M 702 691  C 706.48 691  710 694.52  710 699  C 710 703.48  706.48 707  702 707  C 697.52 707  694 703.48  694 699  C 694 694.52  697.52 691  702 691  Z " stroke-width="2" stroke="#1e98d7" fill="none" />
  <path d="M 702 703.5  C 699.48 703.5  697.5 701.52  697.5 699  C 697.5 696.48  699.48 694.5  702 694.5  C 704.52 694.5  706.5 696.48  706.5 699  C 706.5 701.52  704.52 703.5  702 703.5  " fill-rule="nonzero" fill="#1e98d7" stroke="none" />
</svg>