<?xml version="1.0" encoding="utf-8"?>
<svg version="1.1" xmlns:xlink="http://www.w3.org/1999/xlink" width="18px" height="18px" viewBox="693 730  18 18" xmlns="http://www.w3.org/2000/svg">
  <path d="M 702 731  C 706.48 731  710 734.52  710 739  C 710 743.48  706.48 747  702 747  C 697.52 747  694 743.48  694 739  C 694 734.52  697.52 731  702 731  Z " fill-rule="nonzero" fill="#6200ee" stroke="none" fill-opacity="0" />
  <path d="M 702 731  C 706.48 731  710 734.52  710 739  C 710 743.48  706.48 747  702 747  C 697.52 747  694 743.48  694 739  C 694 734.52  697.52 731  702 731  Z " stroke-width="2" stroke="#1e98d7" fill="none" />
  <path d="M 702 743.5  C 699.48 743.5  697.5 741.52  697.5 739  C 697.5 736.48  699.48 734.5  702 734.5  C 704.52 734.5  706.5 736.48  706.5 739  C 706.5 741.52  704.52 743.5  702 743.5  " fill-rule="nonzero" fill="#1e98d7" stroke="none" />
</svg>