<?xml version="1.0" encoding="utf-8"?>
<svg version="1.1" xmlns:xlink="http://www.w3.org/1999/xlink" width="18px" height="18px" viewBox="523 690  18 18" xmlns="http://www.w3.org/2000/svg">
  <path d="M 532 691  C 536.48 691  540 694.52  540 699  C 540 703.48  536.48 707  532 707  C 527.52 707  524 703.48  524 699  C 524 694.52  527.52 691  532 691  Z " fill-rule="nonzero" fill="#6200ee" stroke="none" fill-opacity="0" />
  <path d="M 532 691  C 536.48 691  540 694.52  540 699  C 540 703.48  536.48 707  532 707  C 527.52 707  524 703.48  524 699  C 524 694.52  527.52 691  532 691  Z " stroke-width="2" stroke="#1e98d7" fill="none" />
  <path d="M 532 703.5  C 529.48 703.5  527.5 701.52  527.5 699  C 527.5 696.48  529.48 694.5  532 694.5  C 534.52 694.5  536.5 696.48  536.5 699  C 536.5 701.52  534.52 703.5  532 703.5  " fill-rule="nonzero" fill="#1e98d7" stroke="none" />
</svg>