<?xml version="1.0" encoding="utf-8"?>
<svg version="1.1" xmlns:xlink="http://www.w3.org/1999/xlink" width="18px" height="18px" viewBox="845 780  18 18" xmlns="http://www.w3.org/2000/svg">
  <path d="M 846.5 782  A 0.5 0.5 0 0 1 847 781.5 L 861 781.5  A 0.5 0.5 0 0 1 861.5 782 L 861.5 796  A 0.5 0.5 0 0 1 861 796.5 L 847 796.5  A 0.5 0.5 0 0 1 846.5 796 L 846.5 782  Z " fill-rule="nonzero" fill="#ffffff" stroke="none" fill-opacity="0" />
  <path d="M 846 782  A 1 1 0 0 1 847 781 L 861 781  A 1 1 0 0 1 862 782 L 862 796  A 1 1 0 0 1 861 797 L 847 797  A 1 1 0 0 1 846 796 L 846 782  Z " stroke-width="2" stroke="#797979" fill="none" />
</svg>