<?xml version="1.0" encoding="utf-8"?>
<svg version="1.1" xmlns:xlink="http://www.w3.org/1999/xlink" width="18px" height="18px" viewBox="845 734  18 18" xmlns="http://www.w3.org/2000/svg">
  <path d="M 846.5 736  A 0.5 0.5 0 0 1 847 735.5 L 861 735.5  A 0.5 0.5 0 0 1 861.5 736 L 861.5 750  A 0.5 0.5 0 0 1 861 750.5 L 847 750.5  A 0.5 0.5 0 0 1 846.5 750 L 846.5 736  Z " fill-rule="nonzero" fill="#ffffff" stroke="none" fill-opacity="0" />
  <path d="M 846 736  A 1 1 0 0 1 847 735 L 861 735  A 1 1 0 0 1 862 736 L 862 750  A 1 1 0 0 1 861 751 L 847 751  A 1 1 0 0 1 846 750 L 846 736  Z " stroke-width="2" stroke="#797979" fill="none" />
</svg>