<?xml version="1.0" encoding="utf-8"?>
<svg version="1.1" xmlns:xlink="http://www.w3.org/1999/xlink" width="18px" height="18px" viewBox="523 730  18 18" xmlns="http://www.w3.org/2000/svg">
  <path d="M 532 731  C 536.48 731  540 734.52  540 739  C 540 743.48  536.48 747  532 747  C 527.52 747  524 743.48  524 739  C 524 734.52  527.52 731  532 731  Z " fill-rule="nonzero" fill="#6200ee" stroke="none" fill-opacity="0" />
  <path d="M 532 731  C 536.48 731  540 734.52  540 739  C 540 743.48  536.48 747  532 747  C 527.52 747  524 743.48  524 739  C 524 734.52  527.52 731  532 731  Z " stroke-width="2" stroke="#1e98d7" fill="none" />
  <path d="M 532 743.5  C 529.48 743.5  527.5 741.52  527.5 739  C 527.5 736.48  529.48 734.5  532 734.5  C 534.52 734.5  536.5 736.48  536.5 739  C 536.5 741.52  534.52 743.5  532 743.5  " fill-rule="nonzero" fill="#1e98d7" stroke="none" />
</svg>